<?xml version="1.0" encoding="utf-8"?>
<!-- Generator: Adobe Illustrator 16.0.0, SVG Export Plug-In . SVG Version: 6.00 Build 0)  -->
<!DOCTYPE svg PUBLIC "-//W3C//DTD SVG 1.1//EN" "http://www.w3.org/Graphics/SVG/1.1/DTD/svg11.dtd">
<svg version="1.1" xmlns="http://www.w3.org/2000/svg" xmlns:xlink="http://www.w3.org/1999/xlink" x="0px" y="0px" width="800px"
	 height="818.5px" viewBox="0 0 800 818.5" enable-background="new 0 0 800 818.5" xml:space="preserve">
<g id="Layer_1" display="none">
	<polygon display="inline" fill="#D8BF05" points="407.002,30.934 518.5,285.5 767.072,326.106 595.321,498.953 630,736 
		392.352,667.604 179.43,757.306 222.395,500.48 35.188,319.49 292.723,280.991 	"/>
	<polygon display="inline" fill="#F9E315" points="379.79,41.514 495.982,274.543 753.817,310.931 568.112,493.453 613.174,749.916 
		382.201,629.689 152.213,751.802 195.182,494.98 7.973,313.986 265.506,275.488 	"/>
	<g display="inline">
		<path opacity="0.1" enable-background="new    " d="M586.266,712.757c0,5.609-4.673,10.156-10.435,10.156H230.475
			c-5.763,0-10.435-4.547-10.435-10.156V140.501c0-5.609,4.671-10.156,10.435-10.156h345.356c5.762,0,10.435,4.546,10.435,10.155
			V712.757z"/>
		<path fill="#FFFFFF" stroke="#898989" stroke-width="0.5" stroke-miterlimit="10" d="M574.378,702.567
			c0,5.609-4.672,10.155-10.435,10.155H218.588c-5.763,0-10.435-4.546-10.435-10.155V130.312c0-5.609,4.671-10.156,10.435-10.156
			h345.355c5.763,0,10.435,4.546,10.435,10.155V702.567z"/>
		<g opacity="0.2">
			<g>
				<defs>
					<rect id="SVGID_2_" x="220.413" y="131.049" width="343.573" height="549.717"/>
				</defs>
				<use xlink:href="#SVGID_2_"  overflow="visible" fill="#C1C1C1"/>
				<clipPath id="SVGID_3_">
					<use xlink:href="#SVGID_2_"  overflow="visible"/>
				</clipPath>
				<g transform="matrix(1 0 0 1 1.525879e-05 7.629395e-06)" clip-path="url(#SVGID_3_)">
				</g>
				<use xlink:href="#SVGID_2_"  overflow="visible" fill="none" stroke="#383838" stroke-miterlimit="10"/>
			</g>
			<g>
				
					<rect id="SVGID_1_" x="220.413" y="131.049" fill="#828281" stroke="#383838" stroke-miterlimit="10" width="343.573" height="549.717"/>
			</g>
		</g>
		<path fill="#FFFFFF" stroke="#898989" stroke-width="0.5" stroke-miterlimit="10" d="M405.255,695.232
			c0,3.024-2.452,5.478-5.478,5.478H376.3c-3.024,0-5.478-2.453-5.478-5.478l0,0c0-3.025,2.452-5.479,5.478-5.479h23.479
			C402.803,689.754,405.255,692.207,405.255,695.232L405.255,695.232z"/>
	</g>
</g>
<g id="Layer_4" display="none">
	<path display="inline" opacity="0.4" fill="#FFFFFF" d="M563.986,131.049v549.717H220.413
		C220.413,680.766,426.986,255.049,563.986,131.049z"/>
</g>
<g id="Layer_2" display="none">
	<polyline display="inline" fill="#16D607" points="266.097,417.602 228.599,500.098 350.092,629.091 605.079,282.608 
		518.084,216.612 342.593,492.598 	"/>
</g>
<g id="smile">
	<path fill="#D8BF05" d="M405.65,83.035c-187.53,0-339.552,152.022-339.552,339.552S218.121,762.139,405.65,762.139
		c187.529,0,339.553-152.022,339.553-339.552S593.18,83.035,405.65,83.035z M225.217,280.796c0-32.972,26.729-59.702,59.702-59.702
		s59.702,26.729,59.702,59.702s-26.729,59.702-59.702,59.702S225.217,313.768,225.217,280.796z M400.5,659.498
		c-57.021,0-184-121-128-105c28.033,8.009,226.722,3.493,259-4C587.5,537.498,457.521,659.498,400.5,659.498z M528.201,340.498
		c-32.971,0-59.701-26.729-59.701-59.702s26.73-59.702,59.701-59.702c32.973,0,59.703,26.729,59.703,59.702
		S561.174,340.498,528.201,340.498z"/>
	<path fill="#F9E315" d="M394.65,62.037c-187.53,0-339.553,152.022-339.553,339.552S207.12,741.142,394.65,741.142
		c187.529,0,339.552-152.022,339.552-339.552S582.18,62.037,394.65,62.037z M214.216,259.798c0-32.972,26.729-59.702,59.702-59.702
		s59.702,26.729,59.702,59.702S306.89,319.5,273.918,319.5S214.216,292.771,214.216,259.798z M389.5,638.5
		c-57.021,0.001-184-121-128-105c28.033,8.009,226.723,3.493,259-4C576.5,516.5,446.521,638.5,389.5,638.5z M517.201,319.5
		c-32.972,0-59.701-26.729-59.701-59.702s26.729-59.702,59.701-59.702c32.973,0,59.702,26.729,59.702,59.702
		S550.174,319.5,517.201,319.5z"/>
</g>
</svg>
